# xmcd
#
# Track frame offsets:
#	150
#	20395
#	35475
#	54158
#	72489
#	85692
#	107155
#	129533
#	148820
#	167597
#	189107
#	206197
#	229173
#	250248
#	269915
#
# Disc length: 3898 seconds
#
# Revision: 0
# Processed by: cddbd v1.4PL0 Copyright (c) Steve Scherf et al.
# Submitted via: EasyCDDAExtractor 4.6.0.1
#
DISCID=d80f380f
DTITLE=Jewel - This Way +
DYEAR=2002
DGENRE=Country
TTITLE0=Jewel - 01 - Standing Still
TTITLE1=Jewel - 02 - Jesus Loves You
TTITLE2=Jewel - 03 - Everybody Needs Someone Sometimes
TTITLE3=Jewel - 04 - Break Me
TTITLE4=Jewel - 05 - Do You Want To Play
TTITLE5=Jewel - 06 - Till We Run Out Of Road 
TTITLE6=Jewel - 07 - Serve The Ego
TTITLE7=Jewel - 08 - This Way
TTITLE8=Jewel - 09 - Cleveland
TTITLE9=Jewel - 10 - I Won't Walk Away
TTITLE10=Jewel - 11 - Love Me Just Leave Me Alone
TTITLE11=Jewel - 12 - The New Wild West
TTITLE12=Jewel - 13 - Grey Matter (Live Bonus Track)
TTITLE13=Jewel - 14 - Sometimes It Be That Way
TTITLE14=Jewel - 15 - Under The Water
EXTD=
EXTT0=
EXTT1=
EXTT2=
EXTT3=
EXTT4=
EXTT5=
EXTT6=
EXTT7=
EXTT8=
EXTT9=
EXTT10=
EXTT11=
EXTT12=
EXTT13=
EXTT14=
PLAYORDER=
